{
    "asset": {
        "version": "2.0"
    },
    "scene": 0,
    "scenes": [
        {
            "nodes": [
                0
            ]
        }
    ],
    "nodes": [
        {
            "children": [
                1,
                2,
                3
            ],
            "matrix": [
                0.001,
                0,
                0,
                0,
                0,
                0.001,
                0,
                0,
                0,
                0,
                0.001,
                0,
                0,
                0,
                0,
                1
            ],
            "name": "solid_ikea_bin_for_simulation_v2",
            "extras": {
                "Dtk_PrototypeID": 1
            }
        },
        {
            "mesh": 0,
            "name": "Mesh"
        },
        {
            "mesh": 1,
            "name": "Mesh"
        },
        {
            "mesh": 2,
            "name": "Mesh"
        }
    ],
    "meshes": [
        {
            "primitives": [
                {
                    "attributes": {
                        "NORMAL": 2,
                        "POSITION": 1
                    },
                    "indices": 0,
                    "material": 0,
                    "mode": 4
                }
            ]
        },
        {
            "primitives": [
                {
                    "attributes": {
                        "NORMAL": 5,
                        "POSITION": 4
                    },
                    "indices": 3,
                    "material": 0,
                    "mode": 4
                }
            ]
        },
        {
            "primitives": [
                {
                    "attributes": {
                        "NORMAL": 8,
                        "POSITION": 7
                    },
                    "indices": 6,
                    "material": 0,
                    "mode": 4
                }
            ]
        }
    ],
    "accessors": [
        {
            "bufferView": 0,
            "byteOffset": 0,
            "componentType": 5125,
            "count": 321486,
            "max": [
                318509
            ],
            "min": [
                0
            ],
            "type": "SCALAR"
        },
        {
            "bufferView": 1,
            "byteOffset": 0,
            "componentType": 5126,
            "count": 318510,
            "max": [
                64.18997192,
                78.54637146,
                51.50243378
            ],
            "min": [
                -60.72961807,
                -68.20427704,
                0
            ],
            "type": "VEC3"
        },
        {
            "bufferView": 1,
            "byteOffset": 3822120,
            "componentType": 5126,
            "count": 318510,
            "max": [
                0.9999842644,
                0.9999902844,
                0.9999999404
            ],
            "min": [
                -0.9999842644,
                -0.9999902844,
                -1
            ],
            "type": "VEC3"
        },
        {
            "bufferView": 2,
            "byteOffset": 0,
            "componentType": 5123,
            "count": 5928,
            "max": [
                1937
            ],
            "min": [
                0
            ],
            "type": "SCALAR"
        },
        {
            "bufferView": 3,
            "byteOffset": 0,
            "componentType": 5126,
            "count": 1938,
            "max": [
                64.41688538,
                78.95718384,
                51.48280716
            ],
            "min": [
                -60.93905258,
                -69.13195801,
                50.17282486
            ],
            "type": "VEC3"
        },
        {
            "bufferView": 3,
            "byteOffset": 23256,
            "componentType": 5126,
            "count": 1938,
            "max": [
                0.005610260181,
                -0.004405361135,
                0.9999745488
            ],
            "min": [
                0.005610260181,
                -0.004405361135,
                0.9999745488
            ],
            "type": "VEC3"
        },
        {
            "bufferView": 4,
            "byteOffset": 0,
            "componentType": 5125,
            "count": 351228,
            "max": [
                351227
            ],
            "min": [
                0
            ],
            "type": "SCALAR"
        },
        {
            "bufferView": 5,
            "byteOffset": 0,
            "componentType": 5126,
            "count": 351228,
            "max": [
                64.52771759,
                78.95684814,
                51.59401703
            ],
            "min": [
                -60.94010925,
                -69.13067627,
                0.7303180695
            ],
            "type": "VEC3"
        },
        {
            "bufferView": 5,
            "byteOffset": 4214736,
            "componentType": 5126,
            "count": 351228,
            "max": [
                0.9961470962,
                0.9686334729,
                0.9999999404
            ],
            "min": [
                -0.9891884327,
                -0.9856840968,
                -0.3387137353
            ],
            "type": "VEC3"
        }
    ],
    "materials": [
        {
            "pbrMetallicRoughness": {
                "baseColorFactor": [
                    0.7921568627,
                    0.8196078431,
                    0.9333333333,
                    1
                ],
                "metallicFactor": 0,
                "roughnessFactor": 1
            },
            "doubleSided": true,
            "alphaMode": "OPAQUE",
            "extras": {
                "Dtk_ColorId": 1
            }
        }
    ],
    "bufferViews": [
        {
            "buffer": 0,
            "byteOffset": 0,
            "byteLength": 1285944,
            "target": 34963
        },
        {
            "buffer": 0,
            "byteOffset": 1285944,
            "byteLength": 7644240,
            "byteStride": 12,
            "target": 34962
        },
        {
            "buffer": 0,
            "byteOffset": 8930184,
            "byteLength": 11856,
            "target": 34963
        },
        {
            "buffer": 0,
            "byteOffset": 8942040,
            "byteLength": 46512,
            "byteStride": 12,
            "target": 34962
        },
        {
            "buffer": 0,
            "byteOffset": 8988552,
            "byteLength": 1404912,
            "target": 34963
        },
        {
            "buffer": 0,
            "byteOffset": 10393464,
            "byteLength": 8429472,
            "byteStride": 12,
            "target": 34962
        }
    ],
    "buffers": [
        {
            "byteLength": 18822936,
            "uri": "./solid_ikea_bin_for_simulation_v2.bin"
        }
    ]
}